<?xml version="1.0" encoding="utf-8" standalone="no"?>
<!DOCTYPE svg PUBLIC "-//W3C//DTD SVG 1.1//EN"
  "http://www.w3.org/Graphics/SVG/1.1/DTD/svg11.dtd">
<svg xmlns:xlink="http://www.w3.org/1999/xlink" width="495.697812pt" height="278.345498pt" viewBox="0 0 495.697812 278.345498" xmlns="http://www.w3.org/2000/svg" version="1.1">
 <metadata>
  <rdf:RDF xmlns:dc="http://purl.org/dc/elements/1.1/" xmlns:cc="http://creativecommons.org/ns#" xmlns:rdf="http://www.w3.org/1999/02/22-rdf-syntax-ns#">
   <cc:Work>
    <dc:type rdf:resource="http://purl.org/dc/dcmitype/StillImage"/>
    <dc:date>2026-09-26T17:58:09.430306</dc:date>
    <dc:format>image/svg+xml</dc:format>
    <dc:creator>
     <cc:Agent>
      <dc:title>Matplotlib v3.10.1, https://matplotlib.org/</dc:title>
     </cc:Agent>
    </dc:creator>
   </cc:Work>
  </rdf:RDF>
 </metadata>
 <defs>
  <style type="text/css">*{stroke-linejoin: round; stroke-linecap: butt}</style>
 </defs>
 <g id="figure_1">
  <g id="patch_1">
   <path d="M 0 278.345498 
L 495.697812 278.345498 
L 495.697812 0 
L 0 0 
z
" style="fill: #ffffff"/>
  </g>
  <g id="axes_1">
   <g id="patch_2">
    <path d="M 40.407813 239.186123 
L 488.497812 239.186123 
L 488.497812 9.691097 
L 40.407813 9.691097 
z
" style="fill: #ffffff"/>
   </g>
   <g id="matplotlib.axis_1">
    <g id="xtick_1">
     <g id="line2d_1">
      <defs>
       <path id="m508e403687" d="M 0 0 
L 0 3.5 
" style="stroke: #000000; stroke-width: 0.8"/>
      </defs>
      <g>
       <use xlink:href="#m508e403687" x="60.77554" y="239.186123" style="stroke: #000000; stroke-width: 0.8"/>
      </g>
     </g>
     <g id="text_1">
      <!-- 0 -->
      <g transform="translate(57.843509 254.179873) scale(0.1 -0.1)">
       <defs>
        <path id="MicrosoftYaHei-30" d="M 284 2325 
Q 284 3606 709 4264 
Q 1134 4922 1941 4922 
Q 3478 4922 3478 2441 
Q 3478 1216 3045 567 
Q 2613 -81 1831 -81 
Q 1094 -81 689 534 
Q 284 1150 284 2325 
z
M 909 2353 
Q 909 425 1888 425 
Q 2850 425 2850 2384 
Q 2850 4413 1906 4413 
Q 909 4413 909 2353 
z
" transform="scale(0.015625)"/>
       </defs>
       <use xlink:href="#MicrosoftYaHei-30"/>
      </g>
     </g>
    </g>
    <g id="xtick_2">
     <g id="line2d_2">
      <g>
       <use xlink:href="#m508e403687" x="142.246449" y="239.186123" style="stroke: #000000; stroke-width: 0.8"/>
      </g>
     </g>
     <g id="text_2">
      <!-- 10 -->
      <g transform="translate(136.382386 254.179873) scale(0.1 -0.1)">
       <defs>
        <path id="MicrosoftYaHei-31" d="M 1781 0 
L 1781 4141 
Q 1638 3997 1295 3819 
Q 953 3641 663 3569 
L 663 4169 
Q 1047 4275 1484 4508 
Q 1922 4741 2156 4947 
L 2388 4947 
L 2388 0 
L 1781 0 
z
" transform="scale(0.015625)"/>
       </defs>
       <use xlink:href="#MicrosoftYaHei-31"/>
       <use xlink:href="#MicrosoftYaHei-30" transform="translate(58.642578 0)"/>
      </g>
     </g>
    </g>
    <g id="xtick_3">
     <g id="line2d_3">
      <g>
       <use xlink:href="#m508e403687" x="223.717358" y="239.186123" style="stroke: #000000; stroke-width: 0.8"/>
      </g>
     </g>
     <g id="text_3">
      <!-- 20 -->
      <g transform="translate(217.853295 254.179873) scale(0.1 -0.1)">
       <defs>
        <path id="MicrosoftYaHei-32" d="M 2666 3572 
Q 2666 3963 2419 4186 
Q 2172 4409 1747 4409 
Q 1447 4409 1140 4256 
Q 834 4103 569 3819 
L 569 4413 
Q 806 4659 1107 4790 
Q 1409 4922 1816 4922 
Q 2472 4922 2872 4570 
Q 3272 4219 3272 3619 
Q 3272 3084 3026 2693 
Q 2781 2303 2188 1894 
Q 1581 1475 1376 1294 
Q 1172 1113 1090 947 
Q 1009 781 1009 544 
L 3416 544 
L 3416 0 
L 372 0 
L 372 241 
Q 372 659 486 951 
Q 600 1244 862 1520 
Q 1125 1797 1681 2184 
Q 2250 2584 2458 2886 
Q 2666 3188 2666 3572 
z
" transform="scale(0.015625)"/>
       </defs>
       <use xlink:href="#MicrosoftYaHei-32"/>
       <use xlink:href="#MicrosoftYaHei-30" transform="translate(58.642578 0)"/>
      </g>
     </g>
    </g>
    <g id="xtick_4">
     <g id="line2d_4">
      <g>
       <use xlink:href="#m508e403687" x="305.188267" y="239.186123" style="stroke: #000000; stroke-width: 0.8"/>
      </g>
     </g>
     <g id="text_4">
      <!-- 30 -->
      <g transform="translate(299.324205 254.179873) scale(0.1 -0.1)">
       <defs>
        <path id="MicrosoftYaHei-33" d="M 447 809 
Q 944 425 1569 425 
Q 2069 425 2361 670 
Q 2653 916 2653 1328 
Q 2653 2247 1338 2247 
L 934 2247 
L 934 2753 
L 1319 2753 
Q 2484 2753 2484 3616 
Q 2484 4413 1594 4413 
Q 1084 4413 634 4069 
L 634 4647 
Q 1109 4922 1744 4922 
Q 2363 4922 2738 4598 
Q 3113 4275 3113 3759 
Q 3113 2809 2144 2538 
L 2144 2525 
Q 2669 2469 2973 2155 
Q 3278 1841 3278 1372 
Q 3278 719 2808 319 
Q 2338 -81 1556 -81 
Q 869 -81 447 175 
L 447 809 
z
" transform="scale(0.015625)"/>
       </defs>
       <use xlink:href="#MicrosoftYaHei-33"/>
       <use xlink:href="#MicrosoftYaHei-30" transform="translate(58.642578 0)"/>
      </g>
     </g>
    </g>
    <g id="xtick_5">
     <g id="line2d_5">
      <g>
       <use xlink:href="#m508e403687" x="386.659176" y="239.186123" style="stroke: #000000; stroke-width: 0.8"/>
      </g>
     </g>
     <g id="text_5">
      <!-- 40 -->
      <g transform="translate(380.795114 254.179873) scale(0.1 -0.1)">
       <defs>
        <path id="MicrosoftYaHei-34" d="M 2906 4841 
L 2906 1644 
L 3631 1644 
L 3631 1138 
L 2906 1138 
L 2906 0 
L 2313 0 
L 2313 1138 
L 53 1138 
L 53 1616 
Q 656 2294 1265 3178 
Q 1875 4063 2272 4841 
L 2906 4841 
z
M 741 1644 
L 2313 1644 
L 2313 3950 
Q 1988 3366 1616 2817 
Q 1244 2269 741 1644 
z
" transform="scale(0.015625)"/>
       </defs>
       <use xlink:href="#MicrosoftYaHei-34"/>
       <use xlink:href="#MicrosoftYaHei-30" transform="translate(58.642578 0)"/>
      </g>
     </g>
    </g>
    <g id="xtick_6">
     <g id="line2d_6">
      <g>
       <use xlink:href="#m508e403687" x="468.130085" y="239.186123" style="stroke: #000000; stroke-width: 0.8"/>
      </g>
     </g>
     <g id="text_6">
      <!-- 50 -->
      <g transform="translate(462.266023 254.179873) scale(0.1 -0.1)">
       <defs>
        <path id="MicrosoftYaHei-35" d="M 3294 1494 
Q 3294 784 2823 350 
Q 2353 -84 1559 -84 
Q 878 -84 544 119 
L 544 744 
Q 1034 425 1544 425 
Q 2050 425 2361 704 
Q 2672 984 2672 1447 
Q 2672 1909 2348 2167 
Q 2025 2425 1434 2425 
Q 978 2425 613 2384 
L 791 4841 
L 3053 4841 
L 3053 4303 
L 1306 4303 
L 1206 2931 
L 1647 2950 
Q 2416 2950 2855 2567 
Q 3294 2184 3294 1494 
z
" transform="scale(0.015625)"/>
       </defs>
       <use xlink:href="#MicrosoftYaHei-35"/>
       <use xlink:href="#MicrosoftYaHei-30" transform="translate(58.642578 0)"/>
      </g>
     </g>
    </g>
    <g id="text_7">
     <!-- 连续缺失比例（%，非零点对三种位置平均） -->
     <g transform="translate(165.004375 268.659561) scale(0.1 -0.1)">
      <defs>
       <path id="MicrosoftYaHei-8fde" d="M 1850 1391 
L 3950 1391 
L 3950 2259 
L 2131 2259 
L 2131 2703 
Q 2513 3369 2825 4116 
L 1925 4116 
L 1925 4553 
L 3000 4553 
Q 3150 4947 3281 5359 
L 3806 5247 
Q 3672 4894 3531 4553 
L 6088 4553 
L 6088 4116 
L 3350 4116 
Q 3031 3372 2694 2697 
L 3950 2697 
L 3950 3778 
L 4450 3778 
L 4450 2697 
L 6050 2697 
L 6050 2259 
L 4450 2259 
L 4450 1391 
L 6225 1391 
L 6225 953 
L 4450 953 
L 4450 -78 
L 3950 -78 
L 3950 953 
L 1850 953 
L 1850 1391 
z
M 2650 -216 
L 3931 -247 
L 6319 -191 
Q 6213 -441 6113 -672 
L 3944 -697 
L 2594 -666 
Q 1588 -653 1088 47 
Q 906 -97 356 -753 
L 88 -222 
Q 478 131 863 459 
L 863 2641 
L 150 2641 
L 150 3097 
L 1350 3097 
L 1350 369 
Q 1806 -188 2650 -216 
z
M 856 5203 
Q 1288 4659 1688 4084 
L 1244 3772 
Q 875 4359 456 4934 
L 856 5203 
z
" transform="scale(0.015625)"/>
       <path id="MicrosoftYaHei-7eed" d="M 2263 3584 
L 3975 3584 
L 3975 4216 
L 2506 4216 
L 2506 4641 
L 3975 4641 
L 3975 5303 
L 4450 5303 
L 4450 4641 
L 5938 4641 
L 5938 4216 
L 4450 4216 
L 4450 3584 
L 6231 3584 
L 6231 3159 
Q 5944 2609 5644 2191 
Q 5400 2303 5194 2359 
Q 5494 2759 5719 3159 
L 2263 3159 
L 2263 3584 
z
M 2238 1141 
L 4119 1141 
Q 4263 1716 4250 2941 
L 4706 2941 
Q 4706 1753 4588 1141 
L 6238 1141 
L 6238 716 
L 4588 716 
Q 5444 147 6294 -478 
L 5944 -866 
Q 5206 -222 4306 391 
Q 3744 -491 2281 -903 
Q 2175 -691 2019 -466 
Q 3556 -47 3956 716 
L 2238 716 
L 2238 1141 
z
M 838 1672 
Q 1519 1734 2113 1822 
Q 2088 1553 2069 1397 
Q 1338 1309 294 1159 
L 194 1616 
Q 581 1947 1144 2903 
Q 569 2866 213 2834 
L 88 3247 
Q 563 3897 1131 5278 
L 1606 5103 
Q 1044 4003 606 3284 
Q 938 3284 1363 3297 
Q 1581 3697 1825 4184 
L 2263 3978 
Q 1469 2572 838 1672 
z
M 131 172 
Q 1113 334 2150 547 
Q 2125 209 2125 84 
Q 1213 -97 269 -303 
L 131 172 
z
M 2338 1953 
L 2588 2247 
Q 3200 1866 3531 1578 
L 3244 1234 
Q 2963 1503 2338 1953 
z
M 2775 2647 
L 3031 2947 
Q 3531 2666 3963 2316 
L 3681 1978 
Q 3281 2303 2775 2647 
z
" transform="scale(0.015625)"/>
       <path id="MicrosoftYaHei-7f3a" d="M 3056 2259 
L 4091 2259 
Q 4122 2716 4128 3753 
L 3188 3753 
L 3188 4191 
L 4131 4191 
Q 4134 4691 4131 5303 
L 4594 5303 
Q 4594 4694 4594 4191 
L 5869 4191 
L 5869 2259 
L 6319 2259 
L 6319 1822 
L 4638 1822 
Q 5088 241 6356 -303 
Q 6125 -547 5938 -784 
Q 4781 -41 4372 1309 
Q 4066 19 3038 -872 
Q 2900 -666 2706 -447 
Q 2791 -388 2872 -322 
L 2450 -322 
L 2450 -72 
L 400 -141 
L 400 1922 
L 838 1922 
L 838 297 
L 1419 316 
L 1419 2416 
L 100 2416 
L 100 2841 
L 1419 2841 
L 1419 4078 
L 959 4078 
Q 753 3581 525 3166 
Q 338 3272 100 3372 
Q 638 4241 925 5347 
L 1375 5222 
Q 1256 4847 1128 4503 
L 2913 4503 
L 2913 4078 
L 1869 4078 
L 1869 2841 
L 3106 2841 
L 3106 2416 
L 1869 2416 
L 1869 331 
L 2450 350 
L 2450 1922 
L 2888 1922 
L 2888 -309 
Q 3784 428 4034 1822 
L 3056 1822 
L 3056 2259 
z
M 4566 2259 
L 5419 2259 
L 5419 3753 
L 4591 3753 
Q 4584 2759 4566 2259 
z
" transform="scale(0.015625)"/>
       <path id="MicrosoftYaHei-5931" d="M 100 -391 
Q 2419 394 2872 1872 
L 188 1872 
L 188 2347 
L 2966 2347 
Q 3003 2778 3022 3609 
L 1375 3609 
Q 1094 3094 738 2634 
Q 594 2766 344 2934 
Q 1088 3853 1444 5059 
L 1931 4909 
Q 1791 4481 1613 4084 
L 3034 4084 
Q 3041 4628 3044 5309 
L 3575 5309 
Q 3563 4638 3550 4084 
L 5888 4084 
L 5888 3609 
L 3538 3609 
Q 3519 2850 3497 2347 
L 6231 2347 
L 6231 1872 
L 3544 1872 
Q 4138 300 6319 -272 
Q 6119 -534 5944 -778 
Q 3844 -28 3250 1503 
Q 2756 72 488 -866 
Q 356 -697 100 -391 
z
" transform="scale(0.015625)"/>
       <path id="MicrosoftYaHei-6bd4" d="M 3225 5316 
L 3744 5316 
L 3744 2672 
Q 4959 3550 5744 4509 
L 6188 4178 
Q 5175 3063 3744 2056 
L 3744 247 
Q 3744 -166 4106 -166 
L 5175 -166 
Q 5588 -166 5650 203 
Q 5725 678 5763 1247 
Q 6025 1147 6300 1066 
Q 6244 484 6150 22 
Q 6019 -622 5319 -622 
L 3944 -622 
Q 3225 -622 3225 159 
L 3225 5316 
z
M 1063 5153 
L 1063 3278 
L 2825 3278 
L 2825 2809 
L 1063 2809 
L 1063 153 
Q 1713 428 2763 928 
Q 2763 634 2788 366 
Q 1869 -3 1231 -328 
Q 956 -472 725 -672 
L 344 -184 
Q 544 -34 544 272 
L 544 5153 
L 1063 5153 
z
" transform="scale(0.015625)"/>
       <path id="MicrosoftYaHei-4f8b" d="M 2381 1841 
L 2631 2191 
Q 2916 1997 3247 1738 
Q 3488 2378 3581 3128 
L 2703 3128 
Q 2350 1984 1831 1291 
Q 1700 1491 1531 1678 
Q 2238 2694 2578 4522 
L 1900 4522 
L 1900 4959 
L 4319 4959 
L 4319 4522 
L 3044 4522 
Q 2947 4009 2828 3559 
L 4044 3559 
L 4044 3128 
Q 3788 666 2038 -822 
Q 1900 -634 1694 -416 
Q 2578 297 3063 1303 
Q 2753 1556 2381 1841 
z
M 88 2291 
Q 894 3659 1281 5322 
L 1744 5234 
Q 1578 4534 1325 3853 
L 1325 -809 
L 900 -809 
L 900 2847 
Q 625 2275 288 1716 
Q 213 1966 88 2291 
z
M 5575 5303 
L 6031 5303 
L 6031 84 
Q 6031 -391 5881 -566 
Q 5750 -728 5356 -734 
Q 5088 -741 4488 -722 
Q 4463 -466 4400 -203 
Q 4881 -253 5188 -253 
Q 5431 -259 5500 -166 
Q 5575 -84 5575 234 
L 5575 5303 
z
M 4913 653 
L 4469 653 
L 4469 4322 
L 4913 4322 
L 4913 653 
z
" transform="scale(0.015625)"/>
       <path id="MicrosoftYaHei-ff08" d="M 5288 -1100 
Q 4172 119 4172 1850 
Q 4172 3603 5288 4838 
L 5825 4838 
Q 4716 3572 4716 1856 
Q 4716 166 5819 -1100 
L 5288 -1100 
z
" transform="scale(0.015625)"/>
       <path id="MicrosoftYaHei-25" d="M 272 3619 
Q 272 4213 589 4563 
Q 906 4913 1444 4913 
Q 1959 4913 2248 4591 
Q 2538 4269 2538 3694 
Q 2538 3122 2219 2765 
Q 1900 2409 1372 2409 
Q 872 2409 572 2740 
Q 272 3072 272 3619 
z
M 753 3650 
Q 753 3247 928 3028 
Q 1103 2809 1406 2809 
Q 1719 2809 1889 3036 
Q 2059 3263 2059 3675 
Q 2059 4078 1892 4298 
Q 1725 4519 1422 4519 
Q 1113 4519 933 4289 
Q 753 4059 753 3650 
z
M 4647 4841 
L 1538 -31 
L 1016 -31 
L 4125 4841 
L 4647 4841 
z
M 3172 1134 
Q 3172 1728 3489 2083 
Q 3806 2438 4341 2438 
Q 4853 2438 5143 2114 
Q 5434 1791 5434 1203 
Q 5434 634 5112 279 
Q 4791 -75 4272 -75 
Q 3769 -75 3470 261 
Q 3172 597 3172 1134 
z
M 3650 1163 
Q 3650 769 3825 548 
Q 4000 328 4303 328 
Q 4616 328 4786 556 
Q 4956 784 4956 1194 
Q 4956 1600 4786 1815 
Q 4616 2031 4319 2031 
Q 4000 2031 3825 1801 
Q 3650 1572 3650 1163 
z
" transform="scale(0.015625)"/>
       <path id="MicrosoftYaHei-ff0c" d="M 1931 775 
L 1403 -891 
L 966 -891 
L 1350 775 
L 1931 775 
z
" transform="scale(0.015625)"/>
       <path id="MicrosoftYaHei-975e" d="M 3688 5284 
L 4188 5284 
L 4188 4391 
L 6131 4391 
L 6131 3941 
L 4188 3941 
L 4188 2716 
L 6038 2716 
L 6038 2266 
L 4188 2266 
L 4188 1016 
L 6269 1016 
L 6269 566 
L 4188 566 
L 4188 -797 
L 3688 -797 
L 3688 5284 
z
M 150 1016 
L 2206 1016 
L 2206 2266 
L 375 2266 
L 375 2716 
L 2206 2716 
L 2206 3941 
L 275 3941 
L 275 4391 
L 2206 4391 
L 2206 5284 
L 2706 5284 
L 2706 -797 
L 2206 -797 
L 2206 566 
L 150 566 
L 150 1016 
z
" transform="scale(0.015625)"/>
       <path id="MicrosoftYaHei-96f6" d="M 406 4234 
L 2938 4234 
L 2938 4616 
L 600 4616 
L 600 5016 
L 5700 5016 
L 5700 4616 
L 3413 4616 
L 3413 4234 
L 6019 4234 
L 6019 3072 
L 5556 3072 
L 5556 3834 
L 3413 3834 
L 3413 2959 
L 2938 2959 
L 2938 3834 
L 869 3834 
L 869 3072 
L 406 3072 
L 406 4234 
z
M 1650 3 
L 1844 384 
Q 2500 178 3188 -47 
L 4338 678 
L 1238 678 
L 1238 1078 
L 3256 1078 
Q 3006 1397 2694 1747 
L 3044 2009 
Q 3350 1684 3638 1341 
L 3269 1078 
L 4994 1078 
L 4994 609 
L 3675 -216 
Q 4056 -347 4450 -491 
L 4256 -916 
Q 2744 -347 1650 3 
z
M 3544 2834 
L 3456 2722 
Q 4538 1722 6350 1391 
Q 6169 1116 6044 903 
Q 4281 1416 3200 2428 
Q 2206 1516 325 803 
Q 206 1003 50 1234 
Q 2013 1841 3038 2834 
L 3544 2834 
z
M 1075 2859 
L 2456 2859 
L 2456 2497 
L 1075 2497 
L 1075 2859 
z
M 3894 2859 
L 5263 2859 
L 5263 2497 
L 3894 2497 
L 3894 2859 
z
M 1150 3528 
L 2456 3528 
L 2456 3166 
L 1150 3166 
L 1150 3528 
z
M 3894 3528 
L 5188 3528 
L 5188 3166 
L 3894 3166 
L 3894 3528 
z
" transform="scale(0.015625)"/>
       <path id="MicrosoftYaHei-70b9" d="M 900 3378 
L 2863 3378 
L 2863 5341 
L 3388 5341 
L 3388 4591 
L 6181 4591 
L 6181 4141 
L 3388 4141 
L 3388 3378 
L 5600 3378 
L 5600 991 
L 5088 991 
L 5088 1253 
L 1413 1253 
L 1413 991 
L 900 991 
L 900 3378 
z
M 5088 2928 
L 1413 2928 
L 1413 1703 
L 5088 1703 
L 5088 2928 
z
M 5425 847 
Q 5925 91 6225 -516 
L 5750 -772 
Q 5438 -134 4994 622 
L 5425 847 
z
M 1369 553 
Q 894 -303 531 -791 
L 100 -484 
Q 506 53 931 803 
L 1369 553 
z
M 2413 828 
Q 2700 197 2913 -503 
L 2406 -678 
Q 2213 3 1963 666 
L 2413 828 
z
M 3906 872 
Q 4206 253 4450 -422 
L 3956 -616 
Q 3781 -53 3450 697 
L 3906 872 
z
" transform="scale(0.015625)"/>
       <path id="MicrosoftYaHei-5bf9" d="M 694 3691 
Q 1234 2909 1741 2166 
Q 2113 3081 2213 4147 
L 250 4147 
L 250 4622 
L 2725 4622 
L 2725 4166 
Q 2553 2809 2059 1700 
Q 2569 953 3044 247 
L 2594 -53 
Q 2203 563 1803 1181 
Q 1247 163 388 -622 
Q 263 -428 81 -166 
Q 975 638 1500 1647 
Q 919 2538 319 3434 
L 694 3691 
z
M 2975 3941 
L 5056 3941 
L 5056 5278 
L 5563 5278 
L 5563 3941 
L 6325 3941 
L 6325 3466 
L 5563 3466 
L 5563 191 
Q 5563 -716 4669 -716 
Q 4388 -716 3744 -709 
Q 3713 -478 3644 -147 
Q 4263 -197 4588 -197 
Q 5056 -197 5056 278 
L 5056 3466 
L 2975 3466 
L 2975 3941 
z
M 3088 2684 
L 3494 2928 
Q 4000 2184 4388 1484 
L 3919 1216 
Q 3550 1922 3088 2684 
z
" transform="scale(0.015625)"/>
       <path id="MicrosoftYaHei-4e09" d="M 575 4691 
L 5813 4691 
L 5813 4153 
L 575 4153 
L 575 4691 
z
M 188 166 
L 6225 166 
L 6225 -359 
L 188 -359 
L 188 166 
z
M 856 2547 
L 5531 2547 
L 5531 2016 
L 856 2016 
L 856 2547 
z
" transform="scale(0.015625)"/>
       <path id="MicrosoftYaHei-79cd" d="M 2700 4066 
L 4113 4066 
L 4113 5316 
L 4588 5316 
L 4588 4066 
L 6006 4066 
L 6006 1053 
L 5556 1053 
L 5556 1353 
L 4588 1353 
L 4588 -841 
L 4113 -841 
L 4113 1353 
L 3150 1353 
L 3150 1053 
L 2700 1053 
L 2700 4066 
z
M 88 878 
Q 669 1691 1063 2972 
L 119 2972 
L 119 3416 
L 1119 3416 
L 1119 4434 
Q 738 4403 294 4372 
Q 263 4584 200 4828 
Q 1475 4897 2425 5034 
L 2538 4559 
Q 2141 4519 1581 4472 
L 1581 3416 
L 2475 3416 
L 2475 2972 
L 1581 2972 
L 1581 2159 
L 1850 2378 
Q 2188 2028 2606 1516 
L 2225 1203 
Q 1888 1669 1581 2025 
L 1581 -828 
L 1119 -828 
L 1119 1894 
Q 791 972 306 341 
Q 206 603 88 878 
z
M 5556 3634 
L 4588 3634 
L 4588 1784 
L 5556 1784 
L 5556 3634 
z
M 3150 1784 
L 4113 1784 
L 4113 3634 
L 3150 3634 
L 3150 1784 
z
" transform="scale(0.015625)"/>
       <path id="MicrosoftYaHei-4f4d" d="M 1788 -59 
L 4228 -59 
Q 4678 1144 5269 3372 
L 5831 3203 
Q 5453 2044 4756 -59 
L 6319 -59 
L 6319 -522 
L 1788 -522 
L 1788 -59 
z
M 81 2291 
Q 975 3641 1431 5322 
L 1963 5191 
Q 1703 4397 1406 3709 
L 1406 -853 
L 938 -853 
L 938 2731 
Q 644 2181 319 1716 
Q 231 1953 81 2291 
z
M 1919 4191 
L 4122 4191 
Q 3844 4659 3506 5059 
L 3931 5353 
Q 4206 5034 4613 4497 
L 4150 4191 
L 6206 4191 
L 6206 3728 
L 1919 3728 
L 1919 4191 
z
M 2769 3309 
Q 3181 2184 3669 584 
L 3150 434 
Q 2725 1966 2294 3147 
L 2769 3309 
z
" transform="scale(0.015625)"/>
       <path id="MicrosoftYaHei-7f6e" d="M 94 -284 
L 1025 -284 
L 1025 2609 
L 2938 2609 
L 2938 3016 
L 244 3016 
L 244 3366 
L 2938 3366 
L 2938 3697 
L 3388 3697 
L 3388 3366 
L 6150 3366 
L 6150 3016 
L 3388 3016 
L 3388 2609 
L 5431 2609 
L 5431 -284 
L 6294 -284 
L 6294 -647 
L 94 -647 
L 94 -284 
z
M 638 5034 
L 5756 5034 
L 5756 3641 
L 5331 3641 
L 5331 3784 
L 1069 3784 
L 1069 3641 
L 638 3641 
L 638 5034 
z
M 1463 -284 
L 4994 -284 
L 4994 116 
L 1463 116 
L 1463 -284 
z
M 1463 441 
L 4994 441 
L 4994 834 
L 1463 834 
L 1463 441 
z
M 1463 1159 
L 4994 1159 
L 4994 1553 
L 1463 1553 
L 1463 1159 
z
M 4994 2272 
L 1463 2272 
L 1463 1878 
L 4994 1878 
L 4994 2272 
z
M 5331 4697 
L 4181 4697 
L 4181 4122 
L 5331 4122 
L 5331 4697 
z
M 2625 4122 
L 3769 4122 
L 3769 4697 
L 2625 4697 
L 2625 4122 
z
M 1069 4122 
L 2213 4122 
L 2213 4697 
L 1069 4697 
L 1069 4122 
z
" transform="scale(0.015625)"/>
       <path id="MicrosoftYaHei-5e73" d="M 169 1934 
L 2938 1934 
L 2938 4547 
L 450 4547 
L 450 5028 
L 5975 5028 
L 5975 4547 
L 3463 4547 
L 3463 1934 
L 6250 1934 
L 6250 1453 
L 3463 1453 
L 3463 -847 
L 2938 -847 
L 2938 1453 
L 169 1453 
L 169 1934 
z
M 3950 2559 
Q 4638 3284 5188 4159 
L 5656 3859 
Q 4950 2891 4338 2234 
L 3950 2559 
z
M 769 3859 
L 1163 4134 
Q 1863 3316 2369 2553 
L 1925 2222 
Q 1444 3003 769 3859 
z
" transform="scale(0.015625)"/>
       <path id="MicrosoftYaHei-5747" d="M 2244 2803 
Q 2931 3953 3338 5322 
L 3838 5172 
Q 3691 4744 3531 4347 
L 6013 4347 
Q 5925 1053 5875 297 
Q 5831 -697 4806 -697 
Q 4188 -697 3706 -672 
Q 3669 -422 3606 -141 
L 3625 -141 
Q 4250 -209 4775 -209 
Q 5350 -209 5394 378 
Q 5456 1447 5513 3891 
L 3341 3891 
Q 3028 3172 2675 2572 
Q 2481 2691 2244 2803 
z
M 81 428 
Q 559 600 1006 769 
L 1006 3253 
L 169 3253 
L 169 3697 
L 1006 3697 
L 1006 5259 
L 1469 5259 
L 1469 3697 
L 2281 3697 
L 2281 3253 
L 1469 3253 
L 1469 947 
Q 1922 1125 2338 1303 
Q 2350 991 2369 784 
Q 1363 403 250 -53 
L 81 428 
z
M 2513 853 
Q 3769 1353 5119 1934 
Q 5150 1641 5188 1434 
Q 4031 947 2706 359 
L 2513 853 
z
M 3138 2909 
L 3481 3216 
Q 4025 2716 4531 2216 
L 4125 1859 
Q 3644 2409 3138 2909 
z
" transform="scale(0.015625)"/>
       <path id="MicrosoftYaHei-ff09" d="M 1113 -1100 
L 575 -1100 
Q 1684 163 1684 1888 
Q 1684 3581 581 4838 
L 1113 4838 
Q 2222 3628 2222 1888 
Q 2222 128 1113 -1100 
z
" transform="scale(0.015625)"/>
      </defs>
      <use xlink:href="#MicrosoftYaHei-8fde"/>
      <use xlink:href="#MicrosoftYaHei-7eed" transform="translate(100 0)"/>
      <use xlink:href="#MicrosoftYaHei-7f3a" transform="translate(200 0)"/>
      <use xlink:href="#MicrosoftYaHei-5931" transform="translate(300 0)"/>
      <use xlink:href="#MicrosoftYaHei-6bd4" transform="translate(400 0)"/>
      <use xlink:href="#MicrosoftYaHei-4f8b" transform="translate(500 0)"/>
      <use xlink:href="#MicrosoftYaHei-ff08" transform="translate(600 0)"/>
      <use xlink:href="#MicrosoftYaHei-25" transform="translate(700 0)"/>
      <use xlink:href="#MicrosoftYaHei-ff0c" transform="translate(788.964844 0)"/>
      <use xlink:href="#MicrosoftYaHei-975e" transform="translate(888.964844 0)"/>
      <use xlink:href="#MicrosoftYaHei-96f6" transform="translate(988.964844 0)"/>
      <use xlink:href="#MicrosoftYaHei-70b9" transform="translate(1088.964844 0)"/>
      <use xlink:href="#MicrosoftYaHei-5bf9" transform="translate(1188.964844 0)"/>
      <use xlink:href="#MicrosoftYaHei-4e09" transform="translate(1288.964844 0)"/>
      <use xlink:href="#MicrosoftYaHei-79cd" transform="translate(1388.964844 0)"/>
      <use xlink:href="#MicrosoftYaHei-4f4d" transform="translate(1488.964844 0)"/>
      <use xlink:href="#MicrosoftYaHei-7f6e" transform="translate(1588.964844 0)"/>
      <use xlink:href="#MicrosoftYaHei-5e73" transform="translate(1688.964844 0)"/>
      <use xlink:href="#MicrosoftYaHei-5747" transform="translate(1788.964844 0)"/>
      <use xlink:href="#MicrosoftYaHei-ff09" transform="translate(1888.964844 0)"/>
     </g>
    </g>
   </g>
   <g id="matplotlib.axis_2">
    <g id="ytick_1">
     <g id="line2d_7">
      <defs>
       <path id="m234b7aecc8" d="M 0 0 
L -3.5 0 
" style="stroke: #000000; stroke-width: 0.8"/>
      </defs>
      <g>
       <use xlink:href="#m234b7aecc8" x="40.407813" y="209.306415" style="stroke: #000000; stroke-width: 0.8"/>
      </g>
     </g>
     <g id="text_8">
      <!-- 58 -->
      <g transform="translate(21.679688 213.30329) scale(0.1 -0.1)">
       <defs>
        <path id="MicrosoftYaHei-38" d="M 306 1350 
Q 306 1769 556 2122 
Q 806 2475 1200 2625 
Q 884 2803 700 3081 
Q 516 3359 516 3684 
Q 516 4028 692 4312 
Q 869 4597 1183 4759 
Q 1497 4922 1875 4922 
Q 2256 4922 2572 4761 
Q 2888 4600 3063 4315 
Q 3238 4031 3238 3684 
Q 3238 3366 3058 3086 
Q 2878 2806 2559 2625 
Q 2953 2472 3200 2119 
Q 3447 1766 3447 1350 
Q 3447 938 3250 611 
Q 3053 284 2690 103 
Q 2328 -78 1875 -78 
Q 1425 -78 1065 103 
Q 706 284 506 612 
Q 306 941 306 1350 
z
M 906 1378 
Q 906 947 1172 687 
Q 1438 428 1878 428 
Q 2309 428 2582 692 
Q 2856 956 2856 1378 
Q 2856 1778 2579 2051 
Q 2303 2325 1878 2325 
Q 1456 2325 1181 2058 
Q 906 1791 906 1378 
z
M 1081 3634 
Q 1081 3309 1312 3076 
Q 1544 2844 1878 2844 
Q 2206 2844 2445 3078 
Q 2684 3313 2684 3634 
Q 2684 3963 2454 4191 
Q 2225 4419 1878 4419 
Q 1534 4419 1307 4195 
Q 1081 3972 1081 3634 
z
" transform="scale(0.015625)"/>
       </defs>
       <use xlink:href="#MicrosoftYaHei-35"/>
       <use xlink:href="#MicrosoftYaHei-38" transform="translate(58.642578 0)"/>
      </g>
     </g>
    </g>
    <g id="ytick_2">
     <g id="line2d_8">
      <g>
       <use xlink:href="#m234b7aecc8" x="40.407813" y="169.684507" style="stroke: #000000; stroke-width: 0.8"/>
      </g>
     </g>
     <g id="text_9">
      <!-- 59 -->
      <g transform="translate(21.679688 173.681382) scale(0.1 -0.1)">
       <defs>
        <path id="MicrosoftYaHei-39" d="M 578 656 
Q 978 425 1441 425 
Q 2091 425 2448 937 
Q 2806 1450 2806 2394 
Q 2800 2388 2794 2394 
Q 2475 1788 1722 1788 
Q 1113 1788 713 2206 
Q 313 2625 313 3294 
Q 313 4006 750 4464 
Q 1188 4922 1884 4922 
Q 2606 4922 3012 4355 
Q 3419 3788 3419 2703 
Q 3419 1363 2894 641 
Q 2369 -81 1441 -81 
Q 931 -81 578 84 
L 578 656 
z
M 931 3372 
Q 931 2884 1181 2598 
Q 1431 2313 1872 2313 
Q 2253 2313 2512 2573 
Q 2772 2834 2772 3206 
Q 2772 3728 2514 4070 
Q 2256 4413 1834 4413 
Q 1444 4413 1187 4116 
Q 931 3819 931 3372 
z
" transform="scale(0.015625)"/>
       </defs>
       <use xlink:href="#MicrosoftYaHei-35"/>
       <use xlink:href="#MicrosoftYaHei-39" transform="translate(58.642578 0)"/>
      </g>
     </g>
    </g>
    <g id="ytick_3">
     <g id="line2d_9">
      <g>
       <use xlink:href="#m234b7aecc8" x="40.407813" y="130.062599" style="stroke: #000000; stroke-width: 0.8"/>
      </g>
     </g>
     <g id="text_10">
      <!-- 60 -->
      <g transform="translate(21.679688 134.059474) scale(0.1 -0.1)">
       <defs>
        <path id="MicrosoftYaHei-36" d="M 3181 4219 
Q 2803 4413 2391 4413 
Q 1763 4413 1381 3866 
Q 1000 3319 994 2372 
L 1009 2372 
Q 1353 3038 2106 3038 
Q 2734 3038 3109 2628 
Q 3484 2219 3484 1541 
Q 3484 831 3051 375 
Q 2619 -81 1947 -81 
Q 1209 -81 789 495 
Q 369 1072 369 2131 
Q 369 3413 920 4167 
Q 1472 4922 2372 4922 
Q 2888 4922 3181 4781 
L 3181 4219 
z
M 1031 1584 
Q 1031 1106 1286 765 
Q 1541 425 1963 425 
Q 2363 425 2613 719 
Q 2863 1013 2863 1475 
Q 2863 1975 2627 2253 
Q 2391 2531 1956 2531 
Q 1544 2531 1287 2250 
Q 1031 1969 1031 1584 
z
" transform="scale(0.015625)"/>
       </defs>
       <use xlink:href="#MicrosoftYaHei-36"/>
       <use xlink:href="#MicrosoftYaHei-30" transform="translate(58.642578 0)"/>
      </g>
     </g>
    </g>
    <g id="ytick_4">
     <g id="line2d_10">
      <g>
       <use xlink:href="#m234b7aecc8" x="40.407813" y="90.440691" style="stroke: #000000; stroke-width: 0.8"/>
      </g>
     </g>
     <g id="text_11">
      <!-- 61 -->
      <g transform="translate(21.679688 94.437566) scale(0.1 -0.1)">
       <use xlink:href="#MicrosoftYaHei-36"/>
       <use xlink:href="#MicrosoftYaHei-31" transform="translate(58.642578 0)"/>
      </g>
     </g>
    </g>
    <g id="ytick_5">
     <g id="line2d_11">
      <g>
       <use xlink:href="#m234b7aecc8" x="40.407813" y="50.818783" style="stroke: #000000; stroke-width: 0.8"/>
      </g>
     </g>
     <g id="text_12">
      <!-- 62 -->
      <g transform="translate(21.679688 54.815658) scale(0.1 -0.1)">
       <use xlink:href="#MicrosoftYaHei-36"/>
       <use xlink:href="#MicrosoftYaHei-32" transform="translate(58.642578 0)"/>
      </g>
     </g>
    </g>
    <g id="ytick_6">
     <g id="line2d_12">
      <g>
       <use xlink:href="#m234b7aecc8" x="40.407813" y="11.196875" style="stroke: #000000; stroke-width: 0.8"/>
      </g>
     </g>
     <g id="text_13">
      <!-- 63 -->
      <g transform="translate(21.679688 15.19375) scale(0.1 -0.1)">
       <use xlink:href="#MicrosoftYaHei-36"/>
       <use xlink:href="#MicrosoftYaHei-33" transform="translate(58.642578 0)"/>
      </g>
     </g>
    </g>
    <g id="text_14">
     <!-- 内部验证准确率（%） -->
     <g transform="translate(15.19375 173.887048) rotate(-90) scale(0.1 -0.1)">
      <defs>
       <path id="MicrosoftYaHei-5185" d="M 638 4184 
L 2944 4184 
L 2944 5259 
L 3456 5259 
L 3456 4184 
L 5750 4184 
L 5750 59 
Q 5750 -734 4969 -728 
Q 4556 -728 3956 -716 
Q 3938 -503 3863 -172 
Q 4456 -222 4850 -228 
Q 5244 -241 5244 166 
L 5244 3709 
L 3444 3709 
Q 3419 3141 3306 2697 
Q 4413 1809 5094 1134 
L 4713 728 
Q 4044 1459 3156 2247 
Q 2731 1328 1538 647 
Q 1275 1009 1188 1097 
Q 2206 1634 2581 2291 
Q 2881 2772 2931 3709 
L 1144 3709 
L 1144 -784 
L 638 -784 
L 638 4184 
z
" transform="scale(0.015625)"/>
       <path id="MicrosoftYaHei-90e8" d="M 6288 1247 
Q 6288 172 5444 84 
Q 5125 47 4594 109 
Q 4563 334 4513 659 
Q 4969 584 5294 584 
Q 5844 584 5794 1341 
Q 5769 2009 4838 2709 
Q 5244 3516 5663 4503 
L 4388 4503 
L 4388 -828 
L 3913 -828 
L 3913 4966 
L 6163 4966 
L 6163 4453 
Q 5919 3822 5406 2816 
Q 6288 2128 6288 1247 
z
M 575 1753 
L 3275 1753 
L 3275 -791 
L 2813 -791 
L 2813 -328 
L 1038 -328 
L 1038 -797 
L 575 -797 
L 575 1753 
z
M 2813 1334 
L 1038 1334 
L 1038 103 
L 2813 103 
L 2813 1334 
z
M 125 2822 
L 2125 2822 
Q 2497 3466 2731 3997 
L 3194 3759 
Q 2922 3284 2616 2822 
L 3706 2822 
L 3706 2403 
L 125 2403 
L 125 2822 
z
M 263 4472 
L 1825 4472 
Q 1703 4753 1456 5159 
L 1888 5359 
Q 2169 4891 2288 4616 
L 1981 4472 
L 3594 4472 
L 3594 4053 
L 263 4053 
L 263 4472 
z
M 681 3728 
L 1063 3959 
Q 1375 3516 1631 3072 
L 1206 2828 
Q 1013 3222 681 3728 
z
" transform="scale(0.015625)"/>
       <path id="MicrosoftYaHei-9a8c" d="M 963 4116 
L 819 2397 
L 1450 2397 
L 1613 4503 
L 194 4503 
L 194 4928 
L 2088 4928 
L 1894 2397 
L 2288 2397 
Q 2244 1078 2206 228 
Q 2188 -722 1381 -722 
Q 1044 -722 588 -703 
Q 556 -472 506 -209 
Q 956 -266 1306 -266 
Q 1744 -266 1769 266 
Q 1806 953 1831 1972 
L 331 1972 
L 531 4116 
L 963 4116 
z
M 2338 -103 
L 4594 -103 
Q 5044 1009 5394 2222 
L 5869 2072 
Q 5500 953 5088 -103 
L 6188 -103 
L 6188 -534 
L 2338 -534 
L 2338 -103 
z
M 4606 5278 
L 4488 5078 
Q 5244 3734 6363 3122 
Q 6163 2872 6031 2684 
Q 4931 3497 4238 4641 
Q 3600 3509 2456 2609 
Q 2344 2772 2144 3003 
Q 3388 3866 4050 5278 
L 4606 5278 
z
M 2975 2978 
L 5550 2978 
L 5550 2547 
L 2975 2547 
L 2975 2978 
z
M 3731 2178 
L 4175 2297 
Q 4438 1359 4606 659 
L 4150 528 
Q 3969 1391 3731 2178 
z
M 2656 1897 
L 3094 2034 
Q 3400 1147 3606 453 
L 3144 297 
Q 2938 1097 2656 1897 
z
M 38 1034 
Q 763 1178 1631 1384 
Q 1625 1134 1638 941 
Q 925 791 131 572 
L 38 1034 
z
" transform="scale(0.015625)"/>
       <path id="MicrosoftYaHei-8bc1" d="M 1681 -34 
L 2550 -34 
L 2550 3422 
L 3031 3422 
L 3031 -34 
L 4025 -34 
L 4025 4534 
L 2025 4534 
L 2025 4997 
L 6200 4997 
L 6200 4534 
L 4525 4534 
L 4525 2653 
L 5975 2653 
L 5975 2191 
L 4525 2191 
L 4525 -34 
L 6300 -34 
L 6300 -497 
L 1681 -497 
L 1681 -34 
z
M 2050 1534 
Q 2075 1316 2169 991 
Q 1413 241 1025 -203 
L 669 203 
Q 856 466 856 828 
L 856 2784 
L 100 2784 
L 100 3234 
L 1338 3234 
L 1338 797 
Q 1625 1072 2050 1534 
z
M 706 5222 
Q 1438 4478 1731 4147 
L 1294 3778 
Q 900 4291 325 4891 
L 706 5222 
z
" transform="scale(0.015625)"/>
       <path id="MicrosoftYaHei-51c6" d="M 1413 2766 
Q 2313 3866 2869 5334 
L 3331 5172 
Q 3128 4694 2906 4253 
L 6194 4253 
L 6194 3822 
L 4675 3822 
L 4675 2891 
L 6025 2891 
L 6025 2459 
L 4675 2459 
L 4675 1528 
L 6038 1528 
L 6038 1097 
L 4675 1097 
L 4675 78 
L 6275 78 
L 6275 -341 
L 2769 -341 
L 2769 -841 
L 2281 -841 
L 2281 3131 
Q 2034 2738 1769 2384 
Q 1631 2578 1413 2766 
z
M 2769 78 
L 4188 78 
L 4188 1097 
L 2769 1097 
L 2769 78 
z
M 1081 2422 
Q 1325 2291 1556 2209 
Q 1113 916 681 -372 
L 169 -141 
Q 650 1003 1081 2422 
z
M 2769 1528 
L 4188 1528 
L 4188 2459 
L 2769 2459 
L 2769 1528 
z
M 2769 2891 
L 4188 2891 
L 4188 3822 
L 2769 3822 
L 2769 2891 
z
M 531 4991 
Q 1050 4384 1581 3709 
Q 1538 3678 1150 3341 
Q 681 3997 138 4672 
L 531 4991 
z
M 3919 5116 
L 4325 5372 
Q 4569 5072 4881 4622 
L 4450 4334 
Q 4156 4784 3919 5116 
z
" transform="scale(0.015625)"/>
       <path id="MicrosoftYaHei-786e" d="M 2075 3453 
Q 2956 4334 3456 5359 
L 3931 5272 
Q 3781 4991 3619 4722 
L 5438 4722 
L 5438 4328 
L 4909 3666 
L 6063 3666 
L 6063 -53 
Q 6063 -728 5475 -728 
Q 5144 -728 4906 -716 
Q 4869 -497 4813 -259 
Q 5156 -291 5331 -291 
Q 5619 -291 5619 16 
L 5619 734 
L 4588 734 
L 4588 -659 
L 4144 -659 
L 4144 734 
L 3113 734 
Q 2944 -263 2444 -884 
Q 2288 -703 2081 -509 
Q 2756 291 2756 1841 
L 2756 3506 
Q 2597 3316 2431 3134 
Q 2281 3278 2075 3453 
z
M 31 1691 
Q 741 2834 1066 4291 
L 231 4291 
L 231 4716 
L 2469 4716 
L 2469 4291 
L 1509 4291 
Q 1356 3613 1128 2991 
L 2200 2991 
L 2200 128 
L 1150 128 
L 1150 -347 
L 738 -347 
L 738 2059 
Q 559 1691 350 1347 
Q 225 1497 31 1691 
z
M 1788 541 
L 1788 2578 
L 1150 2578 
L 1150 541 
L 1788 541 
z
M 4875 4322 
L 3366 4322 
Q 3138 3981 2884 3666 
L 4384 3666 
L 4875 4322 
z
M 4588 1134 
L 5619 1134 
L 5619 1991 
L 4588 1991 
L 4588 1134 
z
M 5619 3241 
L 4588 3241 
L 4588 2391 
L 5619 2391 
L 5619 3241 
z
M 3166 1134 
L 4144 1134 
L 4144 1991 
L 3200 1991 
Q 3200 1841 3166 1134 
z
M 3200 2391 
L 4144 2391 
L 4144 3241 
L 3200 3241 
L 3200 2391 
z
" transform="scale(0.015625)"/>
       <path id="MicrosoftYaHei-7387" d="M 2525 2009 
Q 2622 2016 3928 2081 
Q 3772 2300 3625 2491 
L 3963 2703 
Q 4413 2203 4794 1653 
L 4394 1403 
Q 4284 1569 4178 1725 
Q 2991 1659 2213 1597 
Q 2075 1584 1881 1541 
L 1725 1966 
Q 1913 2028 2006 2084 
Q 2534 2441 3050 2913 
Q 2597 2894 2275 2866 
Q 2144 2847 1988 2809 
L 1800 3191 
Q 1956 3247 2088 3366 
Q 2509 3722 2875 4228 
L 231 4228 
L 231 4666 
L 3031 4666 
Q 2878 4944 2744 5153 
L 3194 5372 
Q 3438 5000 3616 4666 
L 6175 4666 
L 6175 4228 
L 3053 4228 
L 3350 4072 
Q 2844 3553 2494 3247 
Q 2850 3256 3425 3269 
Q 3675 3519 3925 3797 
L 4356 3547 
Q 3363 2603 2525 2009 
z
M 144 991 
L 2994 991 
L 2994 1541 
L 3488 1541 
L 3488 991 
L 6275 991 
L 6275 553 
L 3488 553 
L 3488 -853 
L 2994 -853 
L 2994 553 
L 144 553 
L 144 991 
z
M 1719 2672 
L 1944 2303 
Q 1200 1866 425 1409 
L 163 1828 
Q 813 2134 1719 2672 
z
M 4856 2678 
Q 5750 2172 6250 1816 
L 5975 1409 
Q 5331 1909 4600 2341 
L 4856 2678 
z
M 5994 3591 
Q 5519 3178 4963 2809 
L 4644 3141 
Q 5244 3534 5638 3928 
L 5994 3591 
z
M 363 3634 
L 681 3941 
Q 1200 3528 1588 3159 
L 1238 2816 
Q 875 3197 363 3634 
z
" transform="scale(0.015625)"/>
      </defs>
      <use xlink:href="#MicrosoftYaHei-5185"/>
      <use xlink:href="#MicrosoftYaHei-90e8" transform="translate(100 0)"/>
      <use xlink:href="#MicrosoftYaHei-9a8c" transform="translate(200 0)"/>
      <use xlink:href="#MicrosoftYaHei-8bc1" transform="translate(300 0)"/>
      <use xlink:href="#MicrosoftYaHei-51c6" transform="translate(400 0)"/>
      <use xlink:href="#MicrosoftYaHei-786e" transform="translate(500 0)"/>
      <use xlink:href="#MicrosoftYaHei-7387" transform="translate(600 0)"/>
      <use xlink:href="#MicrosoftYaHei-ff08" transform="translate(700 0)"/>
      <use xlink:href="#MicrosoftYaHei-25" transform="translate(800 0)"/>
      <use xlink:href="#MicrosoftYaHei-ff09" transform="translate(888.964844 0)"/>
     </g>
    </g>
   </g>
   <g id="line2d_13">
    <path d="M 60.77554 20.122689 
L 142.246449 31.007829 
L 305.188267 112.646376 
L 468.130085 228.754531 
" clip-path="url(#p0b51b66def)" style="fill: none; stroke: #4775a7; stroke-width: 1.5; stroke-linecap: square"/>
    <defs>
     <path id="m539b007b83" d="M 0 3 
C 0.795609 3 1.55874 2.683901 2.12132 2.12132 
C 2.683901 1.55874 3 0.795609 3 0 
C 3 -0.795609 2.683901 -1.55874 2.12132 -2.12132 
C 1.55874 -2.683901 0.795609 -3 0 -3 
C -0.795609 -3 -1.55874 -2.683901 -2.12132 -2.12132 
C -2.683901 -1.55874 -3 -0.795609 -3 0 
C -3 0.795609 -2.683901 1.55874 -2.12132 2.12132 
C -1.55874 2.683901 -0.795609 3 0 3 
z
" style="stroke: #4775a7"/>
    </defs>
    <g clip-path="url(#p0b51b66def)">
     <use xlink:href="#m539b007b83" x="60.77554" y="20.122689" style="fill: #4775a7; stroke: #4775a7"/>
     <use xlink:href="#m539b007b83" x="142.246449" y="31.007829" style="fill: #4775a7; stroke: #4775a7"/>
     <use xlink:href="#m539b007b83" x="305.188267" y="112.646376" style="fill: #4775a7; stroke: #4775a7"/>
     <use xlink:href="#m539b007b83" x="468.130085" y="228.754531" style="fill: #4775a7; stroke: #4775a7"/>
    </g>
   </g>
   <g id="line2d_14">
    <path d="M 60.77554 20.122689 
L 142.246449 29.193639 
L 305.188267 36.450399 
L 468.130085 40.078779 
" clip-path="url(#p0b51b66def)" style="fill: none; stroke: #57a894; stroke-width: 1.5; stroke-linecap: square"/>
    <defs>
     <path id="mee5c28653e" d="M 0 3 
C 0.795609 3 1.55874 2.683901 2.12132 2.12132 
C 2.683901 1.55874 3 0.795609 3 0 
C 3 -0.795609 2.683901 -1.55874 2.12132 -2.12132 
C 1.55874 -2.683901 0.795609 -3 0 -3 
C -0.795609 -3 -1.55874 -2.683901 -2.12132 -2.12132 
C -2.683901 -1.55874 -3 -0.795609 -3 0 
C -3 0.795609 -2.683901 1.55874 -2.12132 2.12132 
C -1.55874 2.683901 -0.795609 3 0 3 
z
" style="stroke: #57a894"/>
    </defs>
    <g clip-path="url(#p0b51b66def)">
     <use xlink:href="#mee5c28653e" x="60.77554" y="20.122689" style="fill: #57a894; stroke: #57a894"/>
     <use xlink:href="#mee5c28653e" x="142.246449" y="29.193639" style="fill: #57a894; stroke: #57a894"/>
     <use xlink:href="#mee5c28653e" x="305.188267" y="36.450399" style="fill: #57a894; stroke: #57a894"/>
     <use xlink:href="#mee5c28653e" x="468.130085" y="40.078779" style="fill: #57a894; stroke: #57a894"/>
    </g>
   </g>
   <g id="line2d_15">
    <path d="M 60.77554 20.122689 
L 142.246449 21.936879 
L 305.188267 29.193639 
L 468.130085 29.193639 
" clip-path="url(#p0b51b66def)" style="fill: none; stroke: #d9954f; stroke-width: 1.5; stroke-linecap: square"/>
    <defs>
     <path id="ma228533041" d="M 0 3 
C 0.795609 3 1.55874 2.683901 2.12132 2.12132 
C 2.683901 1.55874 3 0.795609 3 0 
C 3 -0.795609 2.683901 -1.55874 2.12132 -2.12132 
C 1.55874 -2.683901 0.795609 -3 0 -3 
C -0.795609 -3 -1.55874 -2.683901 -2.12132 -2.12132 
C -2.683901 -1.55874 -3 -0.795609 -3 0 
C -3 0.795609 -2.683901 1.55874 -2.12132 2.12132 
C -1.55874 2.683901 -0.795609 3 0 3 
z
" style="stroke: #d9954f"/>
    </defs>
    <g clip-path="url(#p0b51b66def)">
     <use xlink:href="#ma228533041" x="60.77554" y="20.122689" style="fill: #d9954f; stroke: #d9954f"/>
     <use xlink:href="#ma228533041" x="142.246449" y="21.936879" style="fill: #d9954f; stroke: #d9954f"/>
     <use xlink:href="#ma228533041" x="305.188267" y="29.193639" style="fill: #d9954f; stroke: #d9954f"/>
     <use xlink:href="#ma228533041" x="468.130085" y="29.193639" style="fill: #d9954f; stroke: #d9954f"/>
    </g>
   </g>
   <g id="patch_3">
    <path d="M 40.407813 239.186123 
L 40.407813 9.691097 
" style="fill: none; stroke: #000000; stroke-width: 0.8; stroke-linejoin: miter; stroke-linecap: square"/>
   </g>
   <g id="patch_4">
    <path d="M 488.497812 239.186123 
L 488.497812 9.691097 
" style="fill: none; stroke: #000000; stroke-width: 0.8; stroke-linejoin: miter; stroke-linecap: square"/>
   </g>
   <g id="patch_5">
    <path d="M 40.407813 239.186123 
L 488.497812 239.186123 
" style="fill: none; stroke: #000000; stroke-width: 0.8; stroke-linejoin: miter; stroke-linecap: square"/>
   </g>
   <g id="patch_6">
    <path d="M 40.407813 9.691097 
L 488.497812 9.691097 
" style="fill: none; stroke: #000000; stroke-width: 0.8; stroke-linejoin: miter; stroke-linecap: square"/>
   </g>
   <g id="legend_1">
    <g id="patch_7">
     <path d="M 47.407813 234.186123 
L 107.128125 234.186123 
Q 109.128125 234.186123 109.128125 232.186123 
L 109.128125 186.747061 
Q 109.128125 184.747061 107.128125 184.747061 
L 47.407813 184.747061 
Q 45.407813 184.747061 45.407813 186.747061 
L 45.407813 232.186123 
Q 45.407813 234.186123 47.407813 234.186123 
z
" style="fill: #ffffff; opacity: 0.8; stroke: #cccccc; stroke-linejoin: miter"/>
    </g>
    <g id="line2d_16">
     <path d="M 49.407813 193.240811 
L 59.407813 193.240811 
L 69.407813 193.240811 
" style="fill: none; stroke: #4775a7; stroke-width: 1.5; stroke-linecap: square"/>
     <g>
      <use xlink:href="#m539b007b83" x="59.407813" y="193.240811" style="fill: #4775a7; stroke: #4775a7"/>
     </g>
    </g>
    <g id="text_15">
     <!-- text -->
     <g transform="translate(77.407813 196.740811) scale(0.1 -0.1)">
      <defs>
       <path id="MicrosoftYaHei-74" d="M 2206 34 
Q 2006 -75 1666 -75 
Q 738 -75 738 953 
L 738 2950 
L 144 2950 
L 144 3456 
L 738 3456 
L 738 4288 
L 1347 4481 
L 1347 3456 
L 2206 3456 
L 2206 2950 
L 1347 2950 
L 1347 1063 
Q 1347 722 1462 575 
Q 1578 428 1847 428 
Q 2053 428 2206 544 
L 2206 34 
z
" transform="scale(0.015625)"/>
       <path id="MicrosoftYaHei-65" d="M 3363 1572 
L 944 1572 
Q 959 1019 1246 717 
Q 1534 416 2050 416 
Q 2631 416 3116 788 
L 3116 241 
Q 2659 -81 1906 -81 
Q 1156 -81 736 394 
Q 316 869 316 1713 
Q 316 2506 777 3022 
Q 1238 3538 1922 3538 
Q 2600 3538 2981 3102 
Q 3363 2666 3363 1881 
L 3363 1572 
z
M 2750 2063 
Q 2747 2531 2528 2787 
Q 2309 3044 1913 3044 
Q 1547 3044 1280 2772 
Q 1013 2500 944 2063 
L 2750 2063 
z
" transform="scale(0.015625)"/>
       <path id="MicrosoftYaHei-78" d="M 3163 3456 
L 2006 1716 
L 3147 0 
L 2434 0 
L 1775 1100 
Q 1722 1188 1625 1369 
L 1613 1369 
Q 1609 1350 1456 1100 
L 784 0 
L 81 0 
L 1256 1697 
L 134 3456 
L 847 3456 
L 1494 2300 
Q 1553 2194 1638 2025 
L 1650 2025 
L 2491 3456 
L 3163 3456 
z
" transform="scale(0.015625)"/>
      </defs>
      <use xlink:href="#MicrosoftYaHei-74"/>
      <use xlink:href="#MicrosoftYaHei-65" transform="translate(36.380859 0)"/>
      <use xlink:href="#MicrosoftYaHei-78" transform="translate(93.119141 0)"/>
      <use xlink:href="#MicrosoftYaHei-74" transform="translate(143.802734 0)"/>
     </g>
    </g>
    <g id="line2d_17">
     <path d="M 49.407813 208.720498 
L 59.407813 208.720498 
L 69.407813 208.720498 
" style="fill: none; stroke: #57a894; stroke-width: 1.5; stroke-linecap: square"/>
     <g>
      <use xlink:href="#mee5c28653e" x="59.407813" y="208.720498" style="fill: #57a894; stroke: #57a894"/>
     </g>
    </g>
    <g id="text_16">
     <!-- audio -->
     <g transform="translate(77.407813 212.220498) scale(0.1 -0.1)">
      <defs>
       <path id="MicrosoftYaHei-61" d="M 628 3216 
Q 1144 3538 1819 3538 
Q 3069 3538 3069 2225 
L 3069 0 
L 2463 0 
L 2463 534 
L 2447 534 
Q 2088 -81 1388 -81 
Q 884 -81 587 191 
Q 291 463 291 925 
Q 291 1894 1438 2053 
L 2463 2197 
Q 2463 3044 1763 3044 
Q 1141 3044 628 2625 
L 628 3216 
z
M 1653 1625 
Q 1228 1569 1067 1412 
Q 906 1256 906 975 
Q 906 728 1081 572 
Q 1256 416 1544 416 
Q 1944 416 2203 697 
Q 2463 978 2463 1403 
L 2463 1734 
L 1653 1625 
z
" transform="scale(0.015625)"/>
       <path id="MicrosoftYaHei-75" d="M 3400 0 
L 2784 0 
L 2784 544 
L 2772 544 
Q 2425 -81 1706 -81 
Q 478 -81 478 1388 
L 478 3456 
L 1084 3456 
L 1084 1478 
Q 1084 425 1891 425 
Q 2291 425 2537 720 
Q 2784 1016 2784 1466 
L 2784 3456 
L 3400 3456 
L 3400 0 
z
" transform="scale(0.015625)"/>
       <path id="MicrosoftYaHei-64" d="M 3547 0 
L 2934 0 
L 2934 575 
L 2922 575 
Q 2544 -81 1747 -81 
Q 1091 -81 703 386 
Q 316 853 316 1647 
Q 316 2503 753 3020 
Q 1191 3538 1897 3538 
Q 2603 3538 2922 2988 
L 2934 2988 
L 2934 5116 
L 3547 5116 
L 3547 0 
z
M 2938 2056 
Q 2938 2472 2664 2751 
Q 2391 3031 1991 3031 
Q 1503 3031 1222 2667 
Q 941 2303 941 1675 
Q 941 1097 1211 761 
Q 1481 425 1931 425 
Q 2375 425 2656 754 
Q 2938 1084 2938 1575 
L 2938 2056 
z
" transform="scale(0.015625)"/>
       <path id="MicrosoftYaHei-69" d="M 472 4675 
Q 472 4838 583 4948 
Q 694 5059 856 5059 
Q 1022 5059 1136 4950 
Q 1250 4841 1250 4675 
Q 1250 4513 1136 4405 
Q 1022 4297 856 4297 
Q 691 4297 581 4405 
Q 472 4513 472 4675 
z
M 544 0 
L 544 3456 
L 1156 3456 
L 1156 0 
L 544 0 
z
" transform="scale(0.015625)"/>
       <path id="MicrosoftYaHei-6f" d="M 316 1691 
Q 316 2547 794 3042 
Q 1272 3538 2091 3538 
Q 2869 3538 3311 3061 
Q 3753 2584 3753 1744 
Q 3753 925 3281 422 
Q 2809 -81 2016 -81 
Q 1241 -81 778 406 
Q 316 894 316 1691 
z
M 941 1709 
Q 941 1113 1242 769 
Q 1544 425 2053 425 
Q 2578 425 2853 761 
Q 3128 1097 3128 1725 
Q 3128 2356 2853 2693 
Q 2578 3031 2053 3031 
Q 1538 3031 1239 2678 
Q 941 2325 941 1709 
z
" transform="scale(0.015625)"/>
      </defs>
      <use xlink:href="#MicrosoftYaHei-61"/>
      <use xlink:href="#MicrosoftYaHei-75" transform="translate(55.273438 0)"/>
      <use xlink:href="#MicrosoftYaHei-64" transform="translate(116.894531 0)"/>
      <use xlink:href="#MicrosoftYaHei-69" transform="translate(180.859375 0)"/>
      <use xlink:href="#MicrosoftYaHei-6f" transform="translate(207.470703 0)"/>
     </g>
    </g>
    <g id="line2d_18">
     <path d="M 49.407813 224.200186 
L 59.407813 224.200186 
L 69.407813 224.200186 
" style="fill: none; stroke: #d9954f; stroke-width: 1.5; stroke-linecap: square"/>
     <g>
      <use xlink:href="#ma228533041" x="59.407813" y="224.200186" style="fill: #d9954f; stroke: #d9954f"/>
     </g>
    </g>
    <g id="text_17">
     <!-- vision -->
     <g transform="translate(77.407813 227.700186) scale(0.1 -0.1)">
      <defs>
       <path id="MicrosoftYaHei-76" d="M 3331 3456 
L 1963 0 
L 1344 0 
L 44 3456 
L 713 3456 
L 1556 988 
Q 1659 691 1678 491 
L 1694 491 
Q 1725 753 1803 975 
L 2688 3456 
L 3331 3456 
z
" transform="scale(0.015625)"/>
       <path id="MicrosoftYaHei-73" d="M 353 747 
Q 816 413 1350 413 
Q 2066 413 2066 881 
Q 2066 1081 1909 1211 
Q 1753 1341 1275 1519 
Q 700 1750 528 1976 
Q 356 2203 356 2525 
Q 356 2984 745 3261 
Q 1134 3538 1703 3538 
Q 2144 3538 2522 3384 
L 2522 2794 
Q 2134 3044 1644 3044 
Q 1350 3044 1165 2916 
Q 981 2788 981 2578 
Q 981 2372 1114 2256 
Q 1247 2141 1703 1959 
Q 2281 1744 2484 1512 
Q 2688 1281 2688 941 
Q 2688 466 2298 192 
Q 1909 -81 1291 -81 
Q 753 -81 353 122 
L 353 747 
z
" transform="scale(0.015625)"/>
       <path id="MicrosoftYaHei-6e" d="M 3469 0 
L 2859 0 
L 2859 1966 
Q 2859 3031 2081 3031 
Q 1678 3031 1418 2731 
Q 1159 2431 1159 1972 
L 1159 0 
L 547 0 
L 547 3456 
L 1159 3456 
L 1159 2884 
L 1172 2884 
Q 1563 3538 2306 3538 
Q 2875 3538 3172 3173 
Q 3469 2809 3469 2113 
L 3469 0 
z
" transform="scale(0.015625)"/>
      </defs>
      <use xlink:href="#MicrosoftYaHei-76"/>
      <use xlink:href="#MicrosoftYaHei-69" transform="translate(52.490234 0)"/>
      <use xlink:href="#MicrosoftYaHei-73" transform="translate(79.101562 0)"/>
      <use xlink:href="#MicrosoftYaHei-69" transform="translate(125.390625 0)"/>
      <use xlink:href="#MicrosoftYaHei-6f" transform="translate(152.001953 0)"/>
      <use xlink:href="#MicrosoftYaHei-6e" transform="translate(215.576172 0)"/>
     </g>
    </g>
   </g>
  </g>
 </g>
 <defs>
  <clipPath id="p0b51b66def">
   <rect x="40.407813" y="9.691097" width="448.09" height="229.495026"/>
  </clipPath>
 </defs>
</svg>
